<svg xmlns="http://www.w3.org/2000/svg" width="91.924" height="72"><g fill="#0E456F"><path d="M52.551 37.514c.207-1.701.486-3.402.847-5.104.107-.518-.027-1.086-.408-1.509-.639-.701-1.725-.753-2.424-.117l-.334.305h-.002c-1.212 1.611-2.104 3.358-2.967 5.069-.835 1.731-1.517 3.502-2.092 5.297-.883 2.809-1.473 5.628-2.09 8.479-.205-.964-.292-1.991-.313-2.998-.04-1.843.055-3.71.233-5.569.238-1.86.535-3.714.852-5.572.289-1.876.688-3.692 1.024-5.68.1-.597-.128-1.233-.649-1.622-.74-.553-1.79-.401-2.34.343l-.185.247-.002.001c-.543 1.117-.874 2.187-1.167 3.259-.317 1.054-.595 2.094-.835 3.144-.493 2.083-.996 4.135-1.414 6.206-.494 2.053-.998 4.095-1.619 6.096-.296 1.005-.598 2.003-.935 2.971-.126.362-.268.702-.412 1.04-.567-1.614-.569-3.645-.45-5.539.119-2.376.693-4.729 1.177-7.092.503-2.37 1.051-4.733 1.35-7.229.071-.626.127-1.26.121-1.933.007-.307-.027-.725-.064-1.066-.047-.246-.065-.721-.41-1.249-.166-.262-.466-.542-.834-.689-.358-.132-.73-.141-.988-.092-.546.101-.891.306-1.215.501-.633.396-1.096.862-1.541 1.33-1.729 1.901-3.084 3.946-4.349 6.058l-.086.147c-.299-2.149-.552-4.251-.4-6.338.107-1.477.334-2.947.787-4.374l.01-.022c1.073-1.098 2.061-2.3 2.871-3.682.354-.603.228-1.386-.326-1.841-.614-.505-1.521-.417-2.026.198l-.044.054h-.003c-1.23 1.539-2.179 3.32-2.852 5.191-.333.313-.667.628-1.018.921-1.834 1.548-3.869 2.862-6.002 3.986l-.882.413c-.103-3.313-.286-6.625-.532-9.929-.323-4.43-.834-8.852-1.398-13.241-.066-.501-.513-.879-1.027-.846-.533.037-.937.498-.901 1.031l.852 13.222c.215 3.652.331 7.304.419 10.952-3.285 1.341-6.74 2.266-10.268 2.691-.26.03-.451.267-.428.527.025.27.262.466.531.441h.026c3.458-.309 6.882-1.107 10.176-2.295l.024.886c.08 4.393-.022 8.79-.291 13.166-.224 4.427-.4 8.716-1.195 13.043-.039.221.075.45.289.543.249.109.539-.007.647-.26 1.85-4.148 2.413-8.762 2.782-13.148.345-4.457.441-8.923.396-13.378-.002-.635-.044-1.269-.057-1.903.501-.221 1.013-.41 1.505-.65 1.964-.96 3.843-2.113 5.623-3.435-.087.473-.2.946-.244 1.422-.351 3.363.084 6.61.481 9.735l.126 1.03c-.378.724-.765 1.449-1.108 2.192-1.032 2.23-1.914 4.543-2.51 6.969-.553 2.416-1.014 4.982-.376 7.648.04.17.125.33.255.462.381.387 1.005.396 1.392.016l.032-.033c3.058-1.654 5.099-5.174 5.496-8.672.458-3.504-.037-6.806-.455-9.927-.051-.412-.111-.816-.168-1.222 1.443-2.48 3.093-4.836 5.091-6.864.427-.406.877-.802 1.362-1.092.479-.299 1.043-.465 1.209-.102.374.934.208 2.23.079 3.375-.326 2.362-.908 4.712-1.438 7.078-.544 2.368-1.042 4.752-1.453 7.213-.188 1.232-.331 2.492-.304 3.811.008 1.313.237 2.718 1.012 4.109l.095.133c.135.164.292.334.623.506.344.187.88.215 1.223.079.666-.268.803-.568.954-.738.276-.395.389-.679.514-.969.231-.568.396-1.097.55-1.624.305-1.054.559-2.083.804-3.119l1.289-6.184c.464-2.041.949-4.074 1.523-6.074.155-.524.314-1.057.484-1.582-.062.374-.134.742-.188 1.115-.301 1.874-.489 3.771-.669 5.678-.107 1.913-.178 3.845-.028 5.792.184 1.938.465 3.964 1.668 5.799.106.191.299.334.532.362.385.05.738-.224.788-.61l.004-.035c.45-3.555 1.442-7.117 2.747-10.491 1.045-2.654 2.339-5.224 3.99-7.51-.241 2.678-.459 5.367-.519 8.095-.095 3.501.151 7.033.593 10.497l.006.029c.082.508.561.857 1.069.772.508-.081.853-.562.774-1.069l-.007-.029c-.276-1.692-.485-3.395-.546-5.108-.085-1.704-.095-3.41-.038-5.109.062-1.707.309-3.408.519-5.11zm-26.613 9.66c-.209 1.47-.546 2.918-1.18 4.271-.486 1.04-1.128 2.014-1.828 2.959-.302-1.917-.092-3.954.336-5.902.522-2.327 1.333-4.602 2.298-6.807l.333-.692c.215 2.095.321 4.163.041 6.171zm8.945 5.482z"/><path d="M86.189 51.66c-1.86-2.641-2.75-5.856-3.191-9.2-.225-1.673-.329-3.371-.401-5.107-.04-.873-.063-1.735-.154-2.681-.025-.237-.06-.487-.114-.763-.103-.287-.058-.619-.613-1.196l-.124-.107c-.096-.071-.237-.16-.364-.228-.257-.122-.474-.177-.703-.193-.472-.046-.833.076-1.151.201-1.168.57-1.729 1.348-2.321 2.099-.565.759-1.025 1.549-1.45 2.354-.839 1.604-1.512 3.256-2.102 4.93-.489 1.394-.911 2.806-1.297 4.223.07-1.687.182-3.376.318-5.093.347-3.734.944-7.493 1.47-11.274.159-1.152.278-2.318.413-3.479l.354-.542c1.728-2.984 2.846-6.312 3.188-9.792.119-1.739.031-3.534-.465-5.292-.523-1.742-1.48-3.43-2.852-4.799l-.034-.026c-.255-.201-.592-.302-.938-.241-.658.107-1.103.728-.995 1.384.599 3.662.816 7.427.624 11.196-.157 3.103-.523 6.202-.932 9.306-1.511 1.862-3.311 3.46-5.365 4.359l-.136.046c.085-.719.168-1.432.248-2.152.42-3.989.821-7.998 1.015-12.052.129-4.013.412-8.269-1.295-12.186-.129-.283-.419-.492-.752-.495-.454 0-.825.365-.828.819-.058 3.943.207 7.773.058 11.749-.132 3.954-.474 7.925-.835 11.908l-.231 2.863c-.469-.039-.929-.121-1.35-.313-1.219-.511-2.174-1.617-2.909-2.904h-.002l-.247-.285c-.299-.336-.74-.539-1.225-.514-.844.044-1.495.76-1.453 1.605.096 1.937.075 3.893-.007 5.857l-.279 5.916c-.129 1.982-.137 3.976-.143 5.979.014 1.998.067 4.013.183 6.031v.019l.03.196c.146.602.752.972 1.353.822.601-.145.971-.749.825-1.351-.46-1.893-.775-3.823-.917-5.775-.167-1.945-.129-3.906-.082-5.865.112-1.957.276-3.91.506-5.856.164-1.421.384-2.843.598-4.265.883.92 1.936 1.704 3.202 2.075.59.181 1.188.231 1.787.234-.199 2.508-.384 5.026-.501 7.557-.098 2.02-.098 4.052.004 6.102.128 2.038.319 4.119 1.127 6.148.14.351.521.547.89.443.396-.108.631-.518.521-.916l-.013-.041c-.991-3.599-.595-7.683-.313-11.598.222-2.71.535-5.43.852-8.153.315-.111.631-.225.925-.373 1.586-.792 2.93-1.94 4.094-3.214l.426-.513-.01.088c-.521 3.768-1.109 7.543-1.458 11.368-.292 3.838-.54 7.633-.224 11.69.031.374.266.717.638.872.526.219 1.132-.032 1.349-.559l.143-.346v-.005c.75-3.359 1.667-6.685 2.876-9.871.608-1.586 1.294-3.144 2.1-4.594.406-.718.84-1.417 1.321-2.033.366-.48.822-.938 1.176-1.176l.022.201c.058.78.061 1.664.075 2.531.027 1.753.085 3.543.278 5.339.364 3.556 1.267 7.313 3.355 10.473l.048.071.02.03c.461.655 1.364.811 2.02.352.649-.461.807-1.365.344-2.018zm-8.982-35.885c-.163 2.856-1.169 5.582-2.534 8.065.182-1.892.319-3.785.4-5.689.136-3.454-.057-6.93-.563-10.349 2.072 1.965 2.976 5.075 2.697 7.973z"/><path d="M58.408 22.506c.302.142.65.096.855.011.783-.372.885-.801 1.112-1.181.685-1.541.655-3.292-.136-4.737l-.045-.077-.007-.009c-.22-.387-.711-.515-1.095-.294-.384.218-.518.709-.296 1.093.57.997.697 2.327.278 3.418-.055.167-.151.317-.227.42l-.05-.12c-.138-.582-.129-1.258-.087-1.95.013-.181-.103-.355-.285-.415-.214-.064-.442.06-.51.273l-.013.038c-.2.655-.354 1.402-.276 2.252.021.215.066.469.233.778.096.162.252.369.549.5zm.524-1.17l-.005-.015.005.015z"/></g><path fill="#0E456F" d="M14.572 66.048c2.379-2.329 5.479-3.479 8.449-4.247 3.018-.727 6.059-1.141 9.082-1.545 6.054-.771 12.1-1.219 18.146-1.531 6.049-.233 12.094-.269 18.134-.21 3.021.005 6.04.187 9.058.333 3.044.203 5.974.277 9.117.794.329.053.551.365.498.694-.053.324-.354.545-.678.501l-.119-.018c-1.222-.164-2.882-.178-4.326-.212l-4.497-.031c-3.001.008-6.005.06-9.006.139-6.003.163-12.005.443-17.994.87-5.982.435-11.959 1.003-17.873 1.879-2.957.435-5.891.977-8.781 1.627-2.894.645-5.731 1.448-8.331 2.678-.474.224-1.039.021-1.263-.453-.178-.373-.088-.805.193-1.083l.191-.185z"/></svg>